<svg xmlns="http://www.w3.org/2000/svg" version="1.1" xmlns:xlink="http://www.w3.org/1999/xlink" xmlns:svgjs="http://svgjs.dev/svgjs" width="1500" height="333" viewBox="0 0 1500 333"><g transform="matrix(1,0,0,1,-0.9090909090909918,-0.027848031998644274)"><svg viewBox="0 0 396 88" data-background-color="#ffffff" preserveAspectRatio="xMidYMid meet" height="333" width="1500" xmlns="http://www.w3.org/2000/svg" xmlns:xlink="http://www.w3.org/1999/xlink"><g id="tight-bounds" transform="matrix(1,0,0,1,0.2400000000000091,0.00735923968733232)"><svg viewBox="0 0 395.52 87.98528152062532" height="87.98528152062532" width="395.52"><g><svg viewBox="0 0 575.6962784167523 128.06634083453238" height="87.98528152062532" width="395.52"><g><rect width="8.356841375486159" height="93.1307326618705" x="149.94288893789928" y="17.467804086330943" fill="#0063db" opacity="1" stroke-width="0" stroke="transparent" fill-opacity="1" class="rect-qz-0" data-fill-palette-color="primary" rx="1%" id="qz-0" data-palette-color="#0063db"></rect></g><g transform="matrix(1,0,0,1,180.17627841675235,17.699472575539573)"><svg viewBox="0 0 395.52 92.66739568345324" height="92.66739568345324" width="395.52"><g id="textblocktransform"><svg viewBox="0 0 395.52 92.66739568345324" height="92.66739568345324" width="395.52" id="textblock"><g><svg viewBox="0 0 395.52 92.66739568345324" height="92.66739568345324" width="395.52"><g transform="matrix(1,0,0,1,0,0)"><svg width="395.52" viewBox="1.2 -37.7 203.83 47.71" height="92.66739568345324" data-palette-color="#0063db"><g class="wordmark-text-0" data-fill-palette-color="primary" id="text-0"><path d="M1.2-24.51L1.2-24.51Q1.2-26.68 2.03-28.59 2.86-30.49 4.28-31.92 5.71-33.35 7.62-34.18 9.52-35.01 11.69-35.01L11.69-35.01 27.76-35.01 27.76-28 11.69-28Q10.96-28 10.33-27.73 9.69-27.47 9.22-26.99 8.74-26.51 8.47-25.88 8.2-25.24 8.2-24.51L8.2-24.51Q8.2-23.78 8.47-23.13 8.74-22.49 9.22-22.01 9.69-21.53 10.33-21.26 10.96-21 11.69-21L11.69-21 18.7-21Q20.87-21 22.79-20.18 24.71-19.36 26.14-17.93 27.56-16.5 28.38-14.59 29.2-12.67 29.2-10.5L29.2-10.5Q29.2-8.33 28.38-6.42 27.56-4.52 26.14-3.09 24.71-1.66 22.79-0.83 20.87 0 18.7 0L18.7 0 3.15 0 3.15-7.01 18.7-7.01Q19.43-7.01 20.07-7.28 20.7-7.54 21.18-8.02 21.66-8.5 21.92-9.13 22.19-9.77 22.19-10.5L22.19-10.5Q22.19-11.23 21.92-11.87 21.66-12.5 21.18-12.98 20.7-13.45 20.07-13.72 19.43-13.99 18.7-13.99L18.7-13.99 11.69-13.99Q9.52-13.99 7.62-14.82 5.71-15.65 4.28-17.08 2.86-18.51 2.03-20.42 1.2-22.34 1.2-24.51ZM39.79-3.34L39.79 0 33.08 0 33.08-36.55 39.79-36.55 39.79-13.5 49.73-26.1 57.39-26.1 48.73-15.21 57.39 0 49.73 0 44.43-9.5 39.79-3.34ZM67.89-33.25L67.89-33.25Q67.89-32.32 67.54-31.52 67.18-30.71 66.57-30.11 65.96-29.52 65.14-29.16 64.33-28.81 63.4-28.81L63.4-28.81Q62.47-28.81 61.65-29.16 60.83-29.52 60.24-30.11 59.64-30.71 59.28-31.52 58.93-32.32 58.93-33.25L58.93-33.25Q58.93-34.16 59.28-34.97 59.64-35.79 60.24-36.39 60.83-36.99 61.65-37.34 62.47-37.7 63.4-37.7L63.4-37.7Q64.33-37.7 65.14-37.34 65.96-36.99 66.57-36.39 67.18-35.79 67.54-34.97 67.89-34.16 67.89-33.25ZM66.74-26.15L66.74 0 60.03 0 60.03-26.15 66.74-26.15ZM78.53-36.55L78.53 0 71.82 0 71.82-36.55 78.53-36.55ZM90.32-36.55L90.32 0 83.61 0 83.61-36.55 90.32-36.55ZM94.05-24.51L94.05-24.51Q94.05-26.68 94.88-28.59 95.72-30.49 97.14-31.92 98.57-33.35 100.48-34.18 102.38-35.01 104.55-35.01L104.55-35.01 120.62-35.01 120.62-28 104.55-28Q103.82-28 103.19-27.73 102.55-27.47 102.07-26.99 101.6-26.51 101.33-25.88 101.06-25.24 101.06-24.51L101.06-24.51Q101.06-23.78 101.33-23.13 101.6-22.49 102.07-22.01 102.55-21.53 103.19-21.26 103.82-21 104.55-21L104.55-21 111.56-21Q113.73-21 115.65-20.18 117.57-19.36 118.99-17.93 120.42-16.5 121.24-14.59 122.06-12.67 122.06-10.5L122.06-10.5Q122.06-8.33 121.24-6.42 120.42-4.52 118.99-3.09 117.57-1.66 115.65-0.83 113.73 0 111.56 0L111.56 0 96.01 0 96.01-7.01 111.56-7.01Q112.29-7.01 112.93-7.28 113.56-7.54 114.04-8.02 114.51-8.5 114.78-9.13 115.05-9.77 115.05-10.5L115.05-10.5Q115.05-11.23 114.78-11.87 114.51-12.5 114.04-12.98 113.56-13.45 112.93-13.72 112.29-13.99 111.56-13.99L111.56-13.99 104.55-13.99Q102.38-13.99 100.48-14.82 98.57-15.65 97.14-17.08 95.72-18.51 94.88-20.42 94.05-22.34 94.05-24.51ZM135.65 10.01L132.24 9.96 132.24 3.25 135.95 3.3Q136.92 3.3 137.83 2.98 138.73 2.66 139.5 2.1 140.27 1.54 140.85 0.77 141.44 0 141.81-0.9L141.81-0.9Q140.71-0.44 139.57 0.02 138.44 0.49 137.29 0.49L137.29 0.49Q134.87 0.49 132.75-0.37 130.62-1.22 129.03-2.8 127.43-4.37 126.51-6.63 125.6-8.89 125.6-11.69L125.6-11.69 125.6-26.15 132.24-26.15 132.24-11.69Q132.24-10.3 132.64-9.27 133.04-8.23 133.73-7.53 134.41-6.84 135.32-6.49 136.24-6.15 137.29-6.15L137.29-6.15Q138.32-6.15 139.23-6.63 140.15-7.1 140.83-7.89 141.51-8.67 141.9-9.66 142.29-10.64 142.29-11.69L142.29-11.69 142.29-26.15 149.01-26.15 149.01-3.3Q148.98-0.54 147.93 1.88 146.88 4.3 145.07 6.1 143.25 7.91 140.83 8.96 138.41 10.01 135.65 10.01L135.65 10.01ZM160.75-14.94L160.75 0 154.08 0 154.08-26.15 155.7-26.15 157.89-23.61Q159.5-25.07 161.54-25.87 163.58-26.66 165.8-26.66L165.8-26.66Q168.2-26.66 170.32-25.74 172.44-24.83 174.03-23.23 175.62-21.63 176.53-19.49 177.45-17.36 177.45-14.94L177.45-14.94 177.45 0 170.78 0 170.78-14.94Q170.78-15.97 170.39-16.88 170-17.8 169.32-18.48 168.63-19.17 167.73-19.56 166.83-19.95 165.8-19.95L165.8-19.95Q164.75-19.95 163.83-19.56 162.9-19.17 162.21-18.48 161.53-17.8 161.14-16.88 160.75-15.97 160.75-14.94L160.75-14.94ZM205.03-20.95L205.03-20.95 200.15-16.04Q199.78-17.07 199.15-17.88 198.52-18.7 197.72-19.26 196.93-19.82 196-20.12 195.07-20.41 194.1-20.41L194.1-20.41Q192.73-20.41 191.52-19.85 190.31-19.29 189.42-18.27 188.53-17.26 188.02-15.87 187.5-14.48 187.5-12.79L187.5-12.79Q187.5-11.43 188.02-10.23 188.53-9.03 189.42-8.13 190.31-7.23 191.52-6.71 192.73-6.2 194.1-6.2L194.1-6.2Q195.07-6.2 195.98-6.47 196.88-6.74 197.67-7.24 198.47-7.74 199.09-8.46 199.71-9.18 200.1-10.06L200.1-10.06 204.98-5.15Q204.06-3.83 202.85-2.78 201.64-1.73 200.24-1 198.83-0.27 197.28 0.11 195.73 0.49 194.1 0.49L194.1 0.49Q191.34 0.49 188.91-0.55 186.48-1.59 184.66-3.39 182.84-5.2 181.79-7.62 180.74-10.03 180.74-12.79L180.74-12.79Q180.74-15.8 181.79-18.41 182.84-21.02 184.66-22.96 186.48-24.9 188.91-26.03 191.34-27.15 194.1-27.15L194.1-27.15Q195.73-27.15 197.31-26.73 198.88-26.32 200.31-25.52 201.74-24.73 202.95-23.58 204.15-22.44 205.03-20.95Z" fill="#0063db" data-fill-palette-color="primary"></path></g></svg></g></svg></g></svg></g></svg></g><g><svg viewBox="0 0 128.06634083453238 128.06634083453238" height="128.06634083453238" width="128.06634083453238"><g><svg xmlns="http://www.w3.org/2000/svg" xmlns:xlink="http://www.w3.org/1999/xlink" version="1.1" x="0" y="0" viewBox="0 0 100 100" style="enable-background:new 0 0 100 100;" xml:space="preserve" height="128.06634083453238" width="128.06634083453238" class="icon-icon-0" data-fill-palette-color="accent" id="icon-0"><path d="M14.66 85.376C5.2 75.928 0 63.379 0 50 0 22.437 22.424 0 50 0l6.25 6.25L50 12.5c-20.679 0-37.5 16.821-37.5 37.5 0 10.034 3.906 19.458 10.998 26.538l-7.678 1.001L14.66 85.376 14.66 85.376z" fill="#d90000" data-fill-palette-color="accent"></path><path d="M50 100l-6.25-6.226L50 87.5c20.679 0 37.5-16.821 37.5-37.5 0-10.01-3.906-19.434-11.011-26.525l7.69-1.014 1.147-7.824C94.787 24.084 100 36.646 100 50 100 77.563 77.563 100 50 100L50 100z" fill="#d90000" data-fill-palette-color="accent"></path></svg></g></svg></g></svg></g><defs></defs></svg><rect width="395.52" height="87.98528152062532" fill="none" stroke="none" visibility="hidden"></rect></g></svg></g></svg>